<svg xmlns="http://www.w3.org/2000/svg" viewBox="75 138 325 290">
  <style>
    path { fill: #0a0a0a; }
    @media (prefers-color-scheme: dark) {
      path { fill: #fafafa; }
    }
  </style>
  <path transform="matrix(0.453568 0 0 0.453186 -0.000488281 0)" d="M653.008 316.38C671.893 316.007 691.695 316.327 710.644 316.311L710.746 543.93L728.103 543.922L728.13 514.199C732.928 514.003 738.263 514.138 743.104 514.133L743.093 484.931L750.199 484.812L750.144 455.194L764.028 455.125L763.844 425.212L775.75 425.306C775.706 415.671 775.708 406.034 775.758 396.399L786.966 396.22L786.933 374.278L801.093 374.215L800.98 345.857C805.67 345.686 811.124 345.821 815.866 345.816C816.064 336.283 815.932 325.981 815.957 316.388C833.217 315.994 851.474 316.394 868.831 316.396C869.124 329.059 868.831 343.838 868.823 356.689L868.798 435.365L869.002 682.195L853.846 682.358L853.75 710.881L838.941 710.923L838.892 740.938L831.94 741.183L831.912 770.382L816.384 770.512C816.379 775.477 816.315 780.444 816.194 785.406L808.486 785.525L808.401 800.249C803.819 800.433 798.881 800.348 794.271 800.375C793.891 814.627 794.224 831.298 794.23 845.732L779.604 845.892C779.317 855.339 779.524 866.441 779.51 876.015C774.486 876.305 768.004 876.12 762.872 876.153L762.845 905.034L748.74 905.172L748.726 935.075L733.25 935.047L697.604 935.061C697.306 916.067 697.659 896.368 697.54 877.297C697.195 821.975 697.871 766.317 697.286 711.019L682.155 711.003C682.05 720.96 682.153 731.198 682.153 741.181L668.437 741.288L668.31 770.658L651.493 770.68C651.297 780.138 651.529 790.785 651.562 800.334C647.273 800.676 641.204 800.477 636.779 800.505C636.393 809.671 636.657 821.313 636.666 830.664L622.097 830.788C621.844 835.041 621.957 841.338 621.926 845.74C616.944 845.95 611.209 845.82 606.172 845.84C605.736 853.684 606.073 867.2 606.059 875.48C601.609 875.659 596.713 875.546 592.224 875.56C591.968 884.756 592.186 895.585 592.183 904.91L576.983 905.076L576.977 934.796C562.409 935.017 547.43 934.777 532.826 934.763L532.751 710.914L507.761 711.127C507.446 720.361 507.673 731.596 507.681 740.913L492.067 741.048C491.874 750.575 492.026 760.935 492.012 770.528C487.686 770.953 479.457 770.697 474.842 770.721L474.773 800.869L460.291 800.979C460.075 810.465 460.246 820.974 460.238 830.54L446.291 830.658L446.307 860.409L431.093 860.613C430.911 865.307 430.975 870.78 430.931 875.538L420.87 875.88C420.895 885.506 420.884 895.13 420.828 904.753L407.686 904.778C407.38 914.189 407.609 925.371 407.612 934.917C387.48 935.094 367.344 935.135 347.209 935.036C346.693 910.077 347.231 881.893 347.248 856.602L347.19 710.798L331.292 710.912C331.088 720.756 331.419 730.928 331.228 740.957L318.533 741.106C318.244 750.366 318.495 761.548 318.511 770.953L302.106 771.069C301.777 780.003 302.034 791.568 302.02 800.709L286.335 800.737L286.249 831.138L271.775 831.204L271.721 860.949C267.049 861.167 261.744 861.093 257.025 861.151L257.017 875.946C252.216 876.1 247.08 876.048 242.254 876.092L242.17 890.49C237.845 890.887 231.69 890.747 227.227 890.816L227.349 919.951C222.571 919.921 217.793 919.959 213.016 920.064L212.96 934.608C200.89 934.939 188.108 934.724 175.979 934.774L175.891 603.836C180.809 603.663 186.126 603.715 191.073 603.66L191.037 573.771C195.345 573.504 200.816 573.669 205.213 573.647L205.248 543.963C211.845 543.538 220.504 543.828 227.257 543.811C227.668 535.719 227.349 523.21 227.35 514.783C231.927 514.574 237.484 514.687 242.126 514.648C242.08 504.556 242.099 494.463 242.182 484.374L257.073 484.319L257.096 455.092L273.727 455.145C273.667 445.168 273.656 435.194 273.694 425.22L288.357 425.322C288.514 415.997 288.326 405.819 288.304 396.424L303.852 396.383C304.164 387.217 303.866 375.42 303.846 366.053L319.176 366.075L319.143 336.934L332.58 336.769C332.528 329.967 332.555 323.165 332.663 316.363L360.31 316.344L360.533 559.045L380.012 559.075L379.987 529.102C384.012 528.994 388.304 529.118 392.351 529.143C392.343 521.988 392.368 514.83 392.423 507.673C397.03 507.402 403.502 507.626 408.244 507.631L408.285 484.501L423.011 484.415L422.983 455.128L437.286 455.059C436.922 445.896 437.132 434.753 437.115 425.441L452.406 425.455L452.382 396.256L465.057 396.201L465.066 374.731L479.369 374.629C479.513 365.198 479.386 355.266 479.386 345.794L493.14 345.689L493.168 316.369C507.364 316.098 522.1 316.352 536.343 316.349L536.569 544.048C542.696 544.112 548.823 544.087 554.95 543.974L554.972 514.204C559.797 514.047 564.895 514.133 569.742 514.11L569.813 484.379L585.239 484.324L585.259 454.883L601.317 454.836C601.59 445.513 601.397 434.648 601.419 425.201L614.674 425.229C614.61 415.555 614.622 405.879 614.71 396.206L626.291 396.201C626.475 389.413 626.321 381.422 626.318 374.543L640.222 374.579L640.271 345.992C643.7 345.637 649.297 345.774 652.886 345.719C653.215 336.758 652.986 325.521 653.008 316.38Z"/>
</svg>
