<svg xmlns="http://www.w3.org/2000/svg" viewBox="0 0 1869 1006" preserveAspectRatio="xMidYMid" width="1869" height="1006" xmlns:xlink="http://www.w3.org/1999/xlink" style="shape-rendering:auto;display:block;background-position-x:0%;background-position-y:0%;background-size:auto;background-origin:padding-box;background-clip:border-box;background:scroll rgba(0, 0, 0, 0) none  repeat;width:1869px;height:1006px;;animation:none"><g><linearGradient y2="1" y1="0" x2="0" x1="0" id="lg-49y7475a4w6-0"><stop offset="0" stop-color="#ffbb3b"></stop>

  
<stop offset="1" stop-color="#fff0d4"></stop></linearGradient>
<linearGradient y2="1" y1="0" x2="0" x1="0" id="lg-49y7475a4w6-1"><stop offset="0" stop-color="#fff0d4"></stop>

  
<stop offset="1" stop-color="#000000"></stop></linearGradient>
<linearGradient y2="1" y1="0" x2="0" x1="0" id="lg-49y7475a4w6-2"><stop offset="0" stop-color="#000000"></stop>

  
<stop offset="1" stop-color="#ffbb3b"></stop></linearGradient>
<linearGradient y2="1" y1="0" x2="0" x1="0" id="lg-49y7475a4w6-3"><stop offset="0" stop-color="#ffbb3b"></stop>

  
<stop offset="1" stop-color="#fff0d4"></stop></linearGradient>
<linearGradient y2="1" y1="0" x2="0" x1="0" id="lg-49y7475a4w6-4"><stop offset="0" stop-color="#fff0d4"></stop>

  
<stop offset="1" stop-color="#ffbb3b"></stop></linearGradient>
<path fill-opacity="1" fill="url(#lg-49y7475a4w6-0)" d="M 0 0 L 0 1757.47 Q 133.5 1619.91 267 1599.84 T 534 1338.24 T 801 1331.4 T 1068 1256.01 T 1335 1229.71 T 1602 1015.25 T 1869 889 L 1869 0 Z" style="fill:url('#lg-49y7475a4w6-0');;animation:none"></path>
<path fill-opacity="1" fill="url(#lg-49y7475a4w6-1)" d="M 0 0 L 0 1119.46 Q 133.5 1144.75 267 1102.35 T 534 1016.67 T 801 926.701 T 1068 833.064 T 1335 887.905 T 1602 832.236 T 1869 785.579 L 1869 0 Z" style="fill:url('#lg-49y7475a4w6-1');;animation:none"></path>
<path fill-opacity="1" fill="url(#lg-49y7475a4w6-2)" d="M 0 0 L 0 877.24 Q 133.5 913.452 267 875.93 T 534 693.433 T 801 684.385 T 1068 761.759 T 1335 611.542 T 1602 496.437 T 1869 585.491 L 1869 0 Z" style="fill:url('#lg-49y7475a4w6-2');;animation:none"></path>
<path fill-opacity="1" fill="url(#lg-49y7475a4w6-3)" d="M 0 0 L 0 552.061 Q 133.5 443.867 267 411.615 T 534 474.482 T 801 316.257 T 1068 509.591 T 1335 350.269 T 1602 379.762 T 1869 462.126 L 1869 0 Z" style="fill:url('#lg-49y7475a4w6-3');;animation:none"></path>
<path fill-opacity="1" fill="url(#lg-49y7475a4w6-4)" d="M 0 0 L 0 158.479 Q 133.5 292.34 267 258.023 T 534 209.745 T 801 117.405 T 1068 96.9933 T 1335 96.3348 T 1602 229.084 T 1869 162.418 L 1869 0 Z" style="fill:url('#lg-49y7475a4w6-4');;animation:none"></path>
<g></g></g><!-- [ldio] generated by https://loading.io --></svg>