<svg xmlns="http://www.w3.org/2000/svg" viewBox="0 0 1707 965" preserveAspectRatio="xMidYMid" width="1707" height="965" xmlns:xlink="http://www.w3.org/1999/xlink" style="shape-rendering:auto;display:block;background-position-x:0%;background-position-y:0%;background-size:auto;background-origin:padding-box;background-clip:border-box;background:scroll rgba(0, 0, 0, 0) none  repeat;width:1707px;height:965px;;animation:none"><g><defs><g transform="matrix(1.1330000162124634,0,0,1.1330000162124634,-56.65000081062317,-56.65000081062317)" id="id-0" style="transform:matrix(1.133, 0, 0, 1.133, -56.65, -56.65);;animation:none"><path fill="#ffbb3b" d="M0 0M100 0A100 100 0 0 1 0 100L0 0" style="fill:rgb(255, 187, 59);;animation:none"></path></g>
<g transform="matrix(1.1330000162124634,0,0,1.1330000162124634,-56.65000081062317,-56.65000081062317)" id="id-1" style="transform:matrix(1.133, 0, 0, 1.133, -56.65, -56.65);;animation:none"><path fill="#fff0d4" d="M0 0M100 0A100 100 0 0 1 0 100L0 0" style="fill:rgb(255, 240, 212);;animation:none"></path></g>
<g transform="matrix(1.1330000162124634,0,0,1.1330000162124634,-56.65000081062317,-56.65000081062317)" id="id-2" style="transform:matrix(1.133, 0, 0, 1.133, -56.65, -56.65);;animation:none"><path fill="#95650b" d="M0 0M100 0A100 100 0 0 1 0 100L0 0" style="fill:rgb(149, 101, 11);;animation:none"></path></g>
<g transform="matrix(1.1330000162124634,0,0,1.1330000162124634,-56.65000081062317,-56.65000081062317)" id="id-3" style="transform:matrix(1.133, 0, 0, 1.133, -56.65, -56.65);;animation:none"><path fill="#f6d392" d="M0 0M100 0A100 100 0 0 1 0 100L0 0" style="fill:rgb(246, 211, 146);;animation:none"></path></g></defs>
<use transform="matrix(1,0,0,1,0,0)" href="#id-1" style="transform:matrix(1, 0, 0, 1, 0, 0);;animation:none"></use>
<use transform="matrix(-1.8369701987210297e-16,-1,1,-1.8369701987210297e-16,119,0)" href="#id-0" style="transform:matrix(0, -1, 1, 0, 119, 0);;animation:none"></use>
<g transform="matrix(1,0,0,1,238,0)" style="transform:matrix(1, 0, 0, 1, 238, 0);;animation:none"><g transform="matrix(1,0,0,1,0,0)" style="transform:matrix(1, 0, 0, 1, 0, 0);;animation:none"><use transform="matrix(-1,1.2246467991473532e-16,-1.2246467991473532e-16,-1,0,0)" href="#id-1" style="transform:matrix(-1, 0, 0, -1, 0, 0);;animation:none"></use></g></g>
<use transform="matrix(1,0,0,1,357,0)" href="#id-3" style="transform:matrix(1, 0, 0, 1, 357, 0);;animation:none"></use>
<use transform="matrix(6.123233995736766e-17,1,-1,6.123233995736766e-17,476,0)" href="#id-2" style="transform:matrix(0, 1, -1, 0, 476, 0);;animation:none"></use>
<use transform="matrix(6.123233995736766e-17,1,-1,6.123233995736766e-17,595,0)" href="#id-2" style="transform:matrix(0, 1, -1, 0, 595, 0);;animation:none"></use>
<use transform="matrix(-1.8369701987210297e-16,-1,1,-1.8369701987210297e-16,714,0)" href="#id-1" style="transform:matrix(0, -1, 1, 0, 714, 0);;animation:none"></use>
<use transform="matrix(1,0,0,1,833,0)" href="#id-3" style="transform:matrix(1, 0, 0, 1, 833, 0);;animation:none"></use>
<use transform="matrix(6.123233995736766e-17,1,-1,6.123233995736766e-17,952,0)" href="#id-2" style="transform:matrix(0, 1, -1, 0, 952, 0);;animation:none"></use>
<use transform="matrix(-1,1.2246467991473532e-16,-1.2246467991473532e-16,-1,1071,0)" href="#id-3" style="transform:matrix(-1, 0, 0, -1, 1071, 0);;animation:none"></use>
<use transform="matrix(-1,1.2246467991473532e-16,-1.2246467991473532e-16,-1,1190,0)" href="#id-0" style="transform:matrix(-1, 0, 0, -1, 1190, 0);;animation:none"></use>
<use transform="matrix(6.123233995736766e-17,1,-1,6.123233995736766e-17,1309,0)" href="#id-0" style="transform:matrix(0, 1, -1, 0, 1309, 0);;animation:none"></use>
<use transform="matrix(1,0,0,1,1428,0)" href="#id-3" style="transform:matrix(1, 0, 0, 1, 1428, 0);;animation:none"></use>
<use transform="matrix(1,0,0,1,1547,0)" href="#id-2" style="transform:matrix(1, 0, 0, 1, 1547, 0);;animation:none"></use>
<use transform="matrix(1,0,0,1,1666,0)" href="#id-0" style="transform:matrix(1, 0, 0, 1, 1666, 0);;animation:none"></use>
<use transform="matrix(6.123233995736766e-17,1,-1,6.123233995736766e-17,1785,0)" href="#id-2" style="transform:matrix(0, 1, -1, 0, 1785, 0);;animation:none"></use>
<use transform="matrix(-1.8369701987210297e-16,-1,1,-1.8369701987210297e-16,0,119)" href="#id-1" style="transform:matrix(0, -1, 1, 0, 0, 119);;animation:none"></use>
<use transform="matrix(1,0,0,1,119,119)" href="#id-0" style="transform:matrix(1, 0, 0, 1, 119, 119);;animation:none"></use>
<use transform="matrix(-1,1.2246467991473532e-16,-1.2246467991473532e-16,-1,357,119)" href="#id-3" style="transform:matrix(-1, 0, 0, -1, 357, 119);;animation:none"></use>
<use transform="matrix(1,0,0,1,476,119)" href="#id-3" style="transform:matrix(1, 0, 0, 1, 476, 119);;animation:none"></use>
<use transform="matrix(-1,1.2246467991473532e-16,-1.2246467991473532e-16,-1,595,119)" href="#id-0" style="transform:matrix(-1, 0, 0, -1, 595, 119);;animation:none"></use>
<use transform="matrix(-1,1.2246467991473532e-16,-1.2246467991473532e-16,-1,714,119)" href="#id-1" style="transform:matrix(-1, 0, 0, -1, 714, 119);;animation:none"></use>
<use transform="matrix(-1.8369701987210297e-16,-1,1,-1.8369701987210297e-16,833,119)" href="#id-1" style="transform:matrix(0, -1, 1, 0, 833, 119);;animation:none"></use>
<use transform="matrix(-1,1.2246467991473532e-16,-1.2246467991473532e-16,-1,952,119)" href="#id-2" style="transform:matrix(-1, 0, 0, -1, 952, 119);;animation:none"></use>
<use transform="matrix(-1.8369701987210297e-16,-1,1,-1.8369701987210297e-16,1071,119)" href="#id-2" style="transform:matrix(0, -1, 1, 0, 1071, 119);;animation:none"></use>
<use transform="matrix(6.123233995736766e-17,1,-1,6.123233995736766e-17,1190,119)" href="#id-2" style="transform:matrix(0, 1, -1, 0, 1190, 119);;animation:none"></use>
<use transform="matrix(-1.8369701987210297e-16,-1,1,-1.8369701987210297e-16,1309,119)" href="#id-2" style="transform:matrix(0, -1, 1, 0, 1309, 119);;animation:none"></use>
<use transform="matrix(-1.8369701987210297e-16,-1,1,-1.8369701987210297e-16,1428,119)" href="#id-2" style="transform:matrix(0, -1, 1, 0, 1428, 119);;animation:none"></use>
<use transform="matrix(1,0,0,1,1547,119)" href="#id-2" style="transform:matrix(1, 0, 0, 1, 1547, 119);;animation:none"></use>
<use transform="matrix(6.123233995736766e-17,1,-1,6.123233995736766e-17,1666,119)" href="#id-0" style="transform:matrix(0, 1, -1, 0, 1666, 119);;animation:none"></use>
<use transform="matrix(6.123233995736766e-17,1,-1,6.123233995736766e-17,1785,119)" href="#id-1" style="transform:matrix(0, 1, -1, 0, 1785, 119);;animation:none"></use>
<g transform="matrix(1,0,0,1,0,238)" style="transform:matrix(1, 0, 0, 1, 0, 238);;animation:none"><g transform="matrix(1,0,0,1,0,0)" style="transform:matrix(1, 0, 0, 1, 0, 0);;animation:none"><use transform="matrix(6.123233995736766e-17,1,-1,6.123233995736766e-17,0,0)" href="#id-0" style="transform:matrix(0, 1, -1, 0, 0, 0);;animation:none"></use></g></g>
<g transform="matrix(1,0,0,1,238,238)" style="transform:matrix(1, 0, 0, 1, 238, 238);;animation:none"><g transform="matrix(1,0,0,1,0,0)" style="transform:matrix(1, 0, 0, 1, 0, 0);;animation:none"><use transform="matrix(1,0,0,1,0,0)" href="#id-1" style="transform:matrix(1, 0, 0, 1, 0, 0);;animation:none"></use></g></g>
<g transform="matrix(1,0,0,1,357,238)" style="transform:matrix(1, 0, 0, 1, 357, 238);;animation:none"><g transform="matrix(1,0,0,1,0,0)" style="transform:matrix(1, 0, 0, 1, 0, 0);;animation:none"><use transform="matrix(-1.8369701987210297e-16,-1,1,-1.8369701987210297e-16,0,0)" href="#id-3" style="transform:matrix(0, -1, 1, 0, 0, 0);;animation:none"></use></g></g>
<g transform="matrix(1,0,0,1,476,238)" style="transform:matrix(1, 0, 0, 1, 476, 238);;animation:none"><g transform="matrix(1,0,0,1,0,0)" style="transform:matrix(1, 0, 0, 1, 0, 0);;animation:none"><use transform="matrix(6.123233995736766e-17,1,-1,6.123233995736766e-17,0,0)" href="#id-3" style="transform:matrix(0, 1, -1, 0, 0, 0);;animation:none"></use></g></g>
<g transform="matrix(1,0,0,1,595,238)" style="transform:matrix(1, 0, 0, 1, 595, 238);;animation:none"><g transform="matrix(1,0,0,1,0,0)" style="transform:matrix(1, 0, 0, 1, 0, 0);;animation:none"><use transform="matrix(-1.8369701987210297e-16,-1,1,-1.8369701987210297e-16,0,0)" href="#id-2" style="transform:matrix(0, -1, 1, 0, 0, 0);;animation:none"></use></g></g>
<g transform="matrix(1,0,0,1,714,238)" style="transform:matrix(1, 0, 0, 1, 714, 238);;animation:none"><g transform="matrix(1,0,0,1,0,0)" style="transform:matrix(1, 0, 0, 1, 0, 0);;animation:none"><use transform="matrix(6.123233995736766e-17,1,-1,6.123233995736766e-17,0,0)" href="#id-2" style="transform:matrix(0, 1, -1, 0, 0, 0);;animation:none"></use></g></g>
<g transform="matrix(1,0,0,1,833,238)" style="transform:matrix(1, 0, 0, 1, 833, 238);;animation:none"><g transform="matrix(1,0,0,1,0,0)" style="transform:matrix(1, 0, 0, 1, 0, 0);;animation:none"><use transform="matrix(-1.8369701987210297e-16,-1,1,-1.8369701987210297e-16,0,0)" href="#id-0" style="transform:matrix(0, -1, 1, 0, 0, 0);;animation:none"></use></g></g>
<g transform="matrix(1,0,0,1,952,238)" style="transform:matrix(1, 0, 0, 1, 952, 238);;animation:none"><g transform="matrix(1,0,0,1,0,0)" style="transform:matrix(1, 0, 0, 1, 0, 0);;animation:none"><use transform="matrix(-1,1.2246467991473532e-16,-1.2246467991473532e-16,-1,0,0)" href="#id-0" style="transform:matrix(-1, 0, 0, -1, 0, 0);;animation:none"></use></g></g>
<g transform="matrix(1,0,0,1,1071,238)" style="transform:matrix(1, 0, 0, 1, 1071, 238);;animation:none"><g transform="matrix(1,0,0,1,0,0)" style="transform:matrix(1, 0, 0, 1, 0, 0);;animation:none"><use transform="matrix(-1.8369701987210297e-16,-1,1,-1.8369701987210297e-16,0,0)" href="#id-1" style="transform:matrix(0, -1, 1, 0, 0, 0);;animation:none"></use></g></g>
<g transform="matrix(1,0,0,1,1190,238)" style="transform:matrix(1, 0, 0, 1, 1190, 238);;animation:none"><g transform="matrix(1,0,0,1,0,0)" style="transform:matrix(1, 0, 0, 1, 0, 0);;animation:none"><use transform="matrix(-1.8369701987210297e-16,-1,1,-1.8369701987210297e-16,0,0)" href="#id-0" style="transform:matrix(0, -1, 1, 0, 0, 0);;animation:none"></use></g></g>
<g transform="matrix(1,0,0,1,1309,238)" style="transform:matrix(1, 0, 0, 1, 1309, 238);;animation:none"><g transform="matrix(1,0,0,1,0,0)" style="transform:matrix(1, 0, 0, 1, 0, 0);;animation:none"><use transform="matrix(-1,1.2246467991473532e-16,-1.2246467991473532e-16,-1,0,0)" href="#id-3" style="transform:matrix(-1, 0, 0, -1, 0, 0);;animation:none"></use></g></g>
<g transform="matrix(1,0,0,1,1428,238)" style="transform:matrix(1, 0, 0, 1, 1428, 238);;animation:none"><g transform="matrix(1,0,0,1,0,0)" style="transform:matrix(1, 0, 0, 1, 0, 0);;animation:none"><use transform="matrix(-1.8369701987210297e-16,-1,1,-1.8369701987210297e-16,0,0)" href="#id-3" style="transform:matrix(0, -1, 1, 0, 0, 0);;animation:none"></use></g></g>
<g transform="matrix(1,0,0,1,1547,238)" style="transform:matrix(1, 0, 0, 1, 1547, 238);;animation:none"><g transform="matrix(1,0,0,1,0,0)" style="transform:matrix(1, 0, 0, 1, 0, 0);;animation:none"><use transform="matrix(-1,1.2246467991473532e-16,-1.2246467991473532e-16,-1,0,0)" href="#id-1" style="transform:matrix(-1, 0, 0, -1, 0, 0);;animation:none"></use></g></g>
<g transform="matrix(1,0,0,1,1666,238)" style="transform:matrix(1, 0, 0, 1, 1666, 238);;animation:none"><g transform="matrix(1,0,0,1,0,0)" style="transform:matrix(1, 0, 0, 1, 0, 0);;animation:none"><use transform="matrix(1,0,0,1,0,0)" href="#id-1" style="transform:matrix(1, 0, 0, 1, 0, 0);;animation:none"></use></g></g>
<g transform="matrix(1,0,0,1,1785,238)" style="transform:matrix(1, 0, 0, 1, 1785, 238);;animation:none"><g transform="matrix(1,0,0,1,0,0)" style="transform:matrix(1, 0, 0, 1, 0, 0);;animation:none"><use transform="matrix(1,0,0,1,0,0)" href="#id-2" style="transform:matrix(1, 0, 0, 1, 0, 0);;animation:none"></use></g></g>
<use transform="matrix(-1.8369701987210297e-16,-1,1,-1.8369701987210297e-16,0,357)" href="#id-2" style="transform:matrix(0, -1, 1, 0, 0, 357);;animation:none"></use>
<use transform="matrix(1,0,0,1,119,357)" href="#id-0" style="transform:matrix(1, 0, 0, 1, 119, 357);;animation:none"></use>
<g transform="matrix(1,0,0,1,238,357)" style="transform:matrix(1, 0, 0, 1, 238, 357);;animation:none"><g transform="matrix(1,0,0,1,0,0)" style="transform:matrix(1, 0, 0, 1, 0, 0);;animation:none"><use transform="matrix(-1.8369701987210297e-16,-1,1,-1.8369701987210297e-16,0,0)" href="#id-0" style="transform:matrix(0, -1, 1, 0, 0, 0);;animation:none"></use></g></g>
<use transform="matrix(-1.8369701987210297e-16,-1,1,-1.8369701987210297e-16,357,357)" href="#id-1" style="transform:matrix(0, -1, 1, 0, 357, 357);;animation:none"></use>
<use transform="matrix(1,0,0,1,476,357)" href="#id-3" style="transform:matrix(1, 0, 0, 1, 476, 357);;animation:none"></use>
<use transform="matrix(1,0,0,1,595,357)" href="#id-3" style="transform:matrix(1, 0, 0, 1, 595, 357);;animation:none"></use>
<use transform="matrix(1,0,0,1,714,357)" href="#id-0" style="transform:matrix(1, 0, 0, 1, 714, 357);;animation:none"></use>
<use transform="matrix(6.123233995736766e-17,1,-1,6.123233995736766e-17,833,357)" href="#id-2" style="transform:matrix(0, 1, -1, 0, 833, 357);;animation:none"></use>
<use transform="matrix(-1.8369701987210297e-16,-1,1,-1.8369701987210297e-16,952,357)" href="#id-3" style="transform:matrix(0, -1, 1, 0, 952, 357);;animation:none"></use>
<use transform="matrix(6.123233995736766e-17,1,-1,6.123233995736766e-17,1071,357)" href="#id-1" style="transform:matrix(0, 1, -1, 0, 1071, 357);;animation:none"></use>
<use transform="matrix(-1.8369701987210297e-16,-1,1,-1.8369701987210297e-16,1190,357)" href="#id-3" style="transform:matrix(0, -1, 1, 0, 1190, 357);;animation:none"></use>
<use transform="matrix(6.123233995736766e-17,1,-1,6.123233995736766e-17,1309,357)" href="#id-0" style="transform:matrix(0, 1, -1, 0, 1309, 357);;animation:none"></use>
<use transform="matrix(6.123233995736766e-17,1,-1,6.123233995736766e-17,1428,357)" href="#id-2" style="transform:matrix(0, 1, -1, 0, 1428, 357);;animation:none"></use>
<use transform="matrix(1,0,0,1,1547,357)" href="#id-3" style="transform:matrix(1, 0, 0, 1, 1547, 357);;animation:none"></use>
<use transform="matrix(6.123233995736766e-17,1,-1,6.123233995736766e-17,1666,357)" href="#id-0" style="transform:matrix(0, 1, -1, 0, 1666, 357);;animation:none"></use>
<use transform="matrix(6.123233995736766e-17,1,-1,6.123233995736766e-17,1785,357)" href="#id-0" style="transform:matrix(0, 1, -1, 0, 1785, 357);;animation:none"></use>
<use transform="matrix(1,0,0,1,0,476)" href="#id-3" style="transform:matrix(1, 0, 0, 1, 0, 476);;animation:none"></use>
<use transform="matrix(6.123233995736766e-17,1,-1,6.123233995736766e-17,119,476)" href="#id-2" style="transform:matrix(0, 1, -1, 0, 119, 476);;animation:none"></use>
<g transform="matrix(1,0,0,1,238,476)" style="transform:matrix(1, 0, 0, 1, 238, 476);;animation:none"><g transform="matrix(1,0,0,1,0,0)" style="transform:matrix(1, 0, 0, 1, 0, 0);;animation:none"><use transform="matrix(1,0,0,1,0,0)" href="#id-1" style="transform:matrix(1, 0, 0, 1, 0, 0);;animation:none"></use></g></g>
<use transform="matrix(-1.8369701987210297e-16,-1,1,-1.8369701987210297e-16,357,476)" href="#id-3" style="transform:matrix(0, -1, 1, 0, 357, 476);;animation:none"></use>
<use transform="matrix(-1,1.2246467991473532e-16,-1.2246467991473532e-16,-1,476,476)" href="#id-0" style="transform:matrix(-1, 0, 0, -1, 476, 476);;animation:none"></use>
<use transform="matrix(-1,1.2246467991473532e-16,-1.2246467991473532e-16,-1,595,476)" href="#id-0" style="transform:matrix(-1, 0, 0, -1, 595, 476);;animation:none"></use>
<use transform="matrix(-1.8369701987210297e-16,-1,1,-1.8369701987210297e-16,714,476)" href="#id-2" style="transform:matrix(0, -1, 1, 0, 714, 476);;animation:none"></use>
<use transform="matrix(-1.8369701987210297e-16,-1,1,-1.8369701987210297e-16,833,476)" href="#id-2" style="transform:matrix(0, -1, 1, 0, 833, 476);;animation:none"></use>
<use transform="matrix(1,0,0,1,952,476)" href="#id-3" style="transform:matrix(1, 0, 0, 1, 952, 476);;animation:none"></use>
<use transform="matrix(-1.8369701987210297e-16,-1,1,-1.8369701987210297e-16,1071,476)" href="#id-3" style="transform:matrix(0, -1, 1, 0, 1071, 476);;animation:none"></use>
<use transform="matrix(6.123233995736766e-17,1,-1,6.123233995736766e-17,1190,476)" href="#id-0" style="transform:matrix(0, 1, -1, 0, 1190, 476);;animation:none"></use>
<use transform="matrix(-1,1.2246467991473532e-16,-1.2246467991473532e-16,-1,1309,476)" href="#id-0" style="transform:matrix(-1, 0, 0, -1, 1309, 476);;animation:none"></use>
<use transform="matrix(-1,1.2246467991473532e-16,-1.2246467991473532e-16,-1,1428,476)" href="#id-0" style="transform:matrix(-1, 0, 0, -1, 1428, 476);;animation:none"></use>
<use transform="matrix(6.123233995736766e-17,1,-1,6.123233995736766e-17,1547,476)" href="#id-2" style="transform:matrix(0, 1, -1, 0, 1547, 476);;animation:none"></use>
<use transform="matrix(1,0,0,1,1666,476)" href="#id-0" style="transform:matrix(1, 0, 0, 1, 1666, 476);;animation:none"></use>
<use transform="matrix(-1,1.2246467991473532e-16,-1.2246467991473532e-16,-1,1785,476)" href="#id-0" style="transform:matrix(-1, 0, 0, -1, 1785, 476);;animation:none"></use>
<use transform="matrix(6.123233995736766e-17,1,-1,6.123233995736766e-17,0,595)" href="#id-3" style="transform:matrix(0, 1, -1, 0, 0, 595);;animation:none"></use>
<use transform="matrix(-1,1.2246467991473532e-16,-1.2246467991473532e-16,-1,119,595)" href="#id-2" style="transform:matrix(-1, 0, 0, -1, 119, 595);;animation:none"></use>
<g transform="matrix(1,0,0,1,238,595)" style="transform:matrix(1, 0, 0, 1, 238, 595);;animation:none"><g transform="matrix(1,0,0,1,0,0)" style="transform:matrix(1, 0, 0, 1, 0, 0);;animation:none"><use transform="matrix(-1,1.2246467991473532e-16,-1.2246467991473532e-16,-1,0,0)" href="#id-3" style="transform:matrix(-1, 0, 0, -1, 0, 0);;animation:none"></use></g></g>
<use transform="matrix(6.123233995736766e-17,1,-1,6.123233995736766e-17,357,595)" href="#id-3" style="transform:matrix(0, 1, -1, 0, 357, 595);;animation:none"></use>
<use transform="matrix(-1.8369701987210297e-16,-1,1,-1.8369701987210297e-16,476,595)" href="#id-1" style="transform:matrix(0, -1, 1, 0, 476, 595);;animation:none"></use>
<use transform="matrix(6.123233995736766e-17,1,-1,6.123233995736766e-17,595,595)" href="#id-0" style="transform:matrix(0, 1, -1, 0, 595, 595);;animation:none"></use>
<use transform="matrix(6.123233995736766e-17,1,-1,6.123233995736766e-17,714,595)" href="#id-1" style="transform:matrix(0, 1, -1, 0, 714, 595);;animation:none"></use>
<use transform="matrix(-1.8369701987210297e-16,-1,1,-1.8369701987210297e-16,833,595)" href="#id-3" style="transform:matrix(0, -1, 1, 0, 833, 595);;animation:none"></use>
<use transform="matrix(-1.8369701987210297e-16,-1,1,-1.8369701987210297e-16,952,595)" href="#id-1" style="transform:matrix(0, -1, 1, 0, 952, 595);;animation:none"></use>
<use transform="matrix(1,0,0,1,1071,595)" href="#id-0" style="transform:matrix(1, 0, 0, 1, 1071, 595);;animation:none"></use>
<use transform="matrix(1,0,0,1,1190,595)" href="#id-2" style="transform:matrix(1, 0, 0, 1, 1190, 595);;animation:none"></use>
<use transform="matrix(1,0,0,1,1309,595)" href="#id-3" style="transform:matrix(1, 0, 0, 1, 1309, 595);;animation:none"></use>
<use transform="matrix(6.123233995736766e-17,1,-1,6.123233995736766e-17,1428,595)" href="#id-3" style="transform:matrix(0, 1, -1, 0, 1428, 595);;animation:none"></use>
<use transform="matrix(1,0,0,1,1547,595)" href="#id-2" style="transform:matrix(1, 0, 0, 1, 1547, 595);;animation:none"></use>
<use transform="matrix(6.123233995736766e-17,1,-1,6.123233995736766e-17,1666,595)" href="#id-3" style="transform:matrix(0, 1, -1, 0, 1666, 595);;animation:none"></use>
<use transform="matrix(1,0,0,1,1785,595)" href="#id-2" style="transform:matrix(1, 0, 0, 1, 1785, 595);;animation:none"></use>
<use transform="matrix(6.123233995736766e-17,1,-1,6.123233995736766e-17,0,714)" href="#id-0" style="transform:matrix(0, 1, -1, 0, 0, 714);;animation:none"></use>
<use transform="matrix(-1.8369701987210297e-16,-1,1,-1.8369701987210297e-16,119,714)" href="#id-1" style="transform:matrix(0, -1, 1, 0, 119, 714);;animation:none"></use>
<g transform="matrix(1,0,0,1,238,714)" style="transform:matrix(1, 0, 0, 1, 238, 714);;animation:none"><g transform="matrix(1,0,0,1,0,0)" style="transform:matrix(1, 0, 0, 1, 0, 0);;animation:none"><use transform="matrix(1,0,0,1,0,0)" href="#id-2" style="transform:matrix(1, 0, 0, 1, 0, 0);;animation:none"></use></g></g>
<use transform="matrix(1,0,0,1,357,714)" href="#id-2" style="transform:matrix(1, 0, 0, 1, 357, 714);;animation:none"></use>
<use transform="matrix(1,0,0,1,476,714)" href="#id-2" style="transform:matrix(1, 0, 0, 1, 476, 714);;animation:none"></use>
<use transform="matrix(6.123233995736766e-17,1,-1,6.123233995736766e-17,595,714)" href="#id-2" style="transform:matrix(0, 1, -1, 0, 595, 714);;animation:none"></use>
<use transform="matrix(6.123233995736766e-17,1,-1,6.123233995736766e-17,714,714)" href="#id-0" style="transform:matrix(0, 1, -1, 0, 714, 714);;animation:none"></use>
<use transform="matrix(-1.8369701987210297e-16,-1,1,-1.8369701987210297e-16,833,714)" href="#id-1" style="transform:matrix(0, -1, 1, 0, 833, 714);;animation:none"></use>
<use transform="matrix(-1.8369701987210297e-16,-1,1,-1.8369701987210297e-16,952,714)" href="#id-0" style="transform:matrix(0, -1, 1, 0, 952, 714);;animation:none"></use>
<use transform="matrix(-1,1.2246467991473532e-16,-1.2246467991473532e-16,-1,1071,714)" href="#id-3" style="transform:matrix(-1, 0, 0, -1, 1071, 714);;animation:none"></use>
<use transform="matrix(6.123233995736766e-17,1,-1,6.123233995736766e-17,1190,714)" href="#id-1" style="transform:matrix(0, 1, -1, 0, 1190, 714);;animation:none"></use>
<use transform="matrix(6.123233995736766e-17,1,-1,6.123233995736766e-17,1309,714)" href="#id-1" style="transform:matrix(0, 1, -1, 0, 1309, 714);;animation:none"></use>
<use transform="matrix(-1.8369701987210297e-16,-1,1,-1.8369701987210297e-16,1428,714)" href="#id-1" style="transform:matrix(0, -1, 1, 0, 1428, 714);;animation:none"></use>
<use transform="matrix(-1,1.2246467991473532e-16,-1.2246467991473532e-16,-1,1547,714)" href="#id-3" style="transform:matrix(-1, 0, 0, -1, 1547, 714);;animation:none"></use>
<use transform="matrix(-1,1.2246467991473532e-16,-1.2246467991473532e-16,-1,1666,714)" href="#id-2" style="transform:matrix(-1, 0, 0, -1, 1666, 714);;animation:none"></use>
<use transform="matrix(6.123233995736766e-17,1,-1,6.123233995736766e-17,1785,714)" href="#id-3" style="transform:matrix(0, 1, -1, 0, 1785, 714);;animation:none"></use>
<use transform="matrix(6.123233995736766e-17,1,-1,6.123233995736766e-17,0,833)" href="#id-0" style="transform:matrix(0, 1, -1, 0, 0, 833);;animation:none"></use>
<use transform="matrix(6.123233995736766e-17,1,-1,6.123233995736766e-17,119,833)" href="#id-2" style="transform:matrix(0, 1, -1, 0, 119, 833);;animation:none"></use>
<g transform="matrix(1,0,0,1,238,833)" style="transform:matrix(1, 0, 0, 1, 238, 833);;animation:none"><g transform="matrix(1,0,0,1,0,0)" style="transform:matrix(1, 0, 0, 1, 0, 0);;animation:none"><use transform="matrix(-1,1.2246467991473532e-16,-1.2246467991473532e-16,-1,0,0)" href="#id-0" style="transform:matrix(-1, 0, 0, -1, 0, 0);;animation:none"></use></g></g>
<use transform="matrix(-1.8369701987210297e-16,-1,1,-1.8369701987210297e-16,357,833)" href="#id-3" style="transform:matrix(0, -1, 1, 0, 357, 833);;animation:none"></use>
<use transform="matrix(6.123233995736766e-17,1,-1,6.123233995736766e-17,476,833)" href="#id-3" style="transform:matrix(0, 1, -1, 0, 476, 833);;animation:none"></use>
<use transform="matrix(1,0,0,1,595,833)" href="#id-0" style="transform:matrix(1, 0, 0, 1, 595, 833);;animation:none"></use>
<use transform="matrix(-1.8369701987210297e-16,-1,1,-1.8369701987210297e-16,714,833)" href="#id-2" style="transform:matrix(0, -1, 1, 0, 714, 833);;animation:none"></use>
<use transform="matrix(-1.8369701987210297e-16,-1,1,-1.8369701987210297e-16,833,833)" href="#id-3" style="transform:matrix(0, -1, 1, 0, 833, 833);;animation:none"></use>
<use transform="matrix(-1,1.2246467991473532e-16,-1.2246467991473532e-16,-1,952,833)" href="#id-1" style="transform:matrix(-1, 0, 0, -1, 952, 833);;animation:none"></use>
<use transform="matrix(-1,1.2246467991473532e-16,-1.2246467991473532e-16,-1,1071,833)" href="#id-0" style="transform:matrix(-1, 0, 0, -1, 1071, 833);;animation:none"></use>
<use transform="matrix(-1.8369701987210297e-16,-1,1,-1.8369701987210297e-16,1190,833)" href="#id-2" style="transform:matrix(0, -1, 1, 0, 1190, 833);;animation:none"></use>
<use transform="matrix(6.123233995736766e-17,1,-1,6.123233995736766e-17,1309,833)" href="#id-3" style="transform:matrix(0, 1, -1, 0, 1309, 833);;animation:none"></use>
<use transform="matrix(-1,1.2246467991473532e-16,-1.2246467991473532e-16,-1,1428,833)" href="#id-2" style="transform:matrix(-1, 0, 0, -1, 1428, 833);;animation:none"></use>
<use transform="matrix(-1,1.2246467991473532e-16,-1.2246467991473532e-16,-1,1547,833)" href="#id-0" style="transform:matrix(-1, 0, 0, -1, 1547, 833);;animation:none"></use>
<use transform="matrix(-1.8369701987210297e-16,-1,1,-1.8369701987210297e-16,1666,833)" href="#id-0" style="transform:matrix(0, -1, 1, 0, 1666, 833);;animation:none"></use>
<use transform="matrix(1,0,0,1,1785,833)" href="#id-2" style="transform:matrix(1, 0, 0, 1, 1785, 833);;animation:none"></use>
<use transform="matrix(-1.8369701987210297e-16,-1,1,-1.8369701987210297e-16,0,952)" href="#id-0" style="transform:matrix(0, -1, 1, 0, 0, 952);;animation:none"></use>
<use transform="matrix(-1.8369701987210297e-16,-1,1,-1.8369701987210297e-16,119,952)" href="#id-2" style="transform:matrix(0, -1, 1, 0, 119, 952);;animation:none"></use>
<g transform="matrix(1,0,0,1,238,952)" style="transform:matrix(1, 0, 0, 1, 238, 952);;animation:none"><g transform="matrix(1,0,0,1,0,0)" style="transform:matrix(1, 0, 0, 1, 0, 0);;animation:none"><use transform="matrix(6.123233995736766e-17,1,-1,6.123233995736766e-17,0,0)" href="#id-3" style="transform:matrix(0, 1, -1, 0, 0, 0);;animation:none"></use></g></g>
<use transform="matrix(-1,1.2246467991473532e-16,-1.2246467991473532e-16,-1,357,952)" href="#id-1" style="transform:matrix(-1, 0, 0, -1, 357, 952);;animation:none"></use>
<use transform="matrix(6.123233995736766e-17,1,-1,6.123233995736766e-17,476,952)" href="#id-1" style="transform:matrix(0, 1, -1, 0, 476, 952);;animation:none"></use>
<use transform="matrix(-1,1.2246467991473532e-16,-1.2246467991473532e-16,-1,595,952)" href="#id-3" style="transform:matrix(-1, 0, 0, -1, 595, 952);;animation:none"></use>
<use transform="matrix(-1,1.2246467991473532e-16,-1.2246467991473532e-16,-1,714,952)" href="#id-0" style="transform:matrix(-1, 0, 0, -1, 714, 952);;animation:none"></use>
<use transform="matrix(-1,1.2246467991473532e-16,-1.2246467991473532e-16,-1,833,952)" href="#id-0" style="transform:matrix(-1, 0, 0, -1, 833, 952);;animation:none"></use>
<use transform="matrix(-1.8369701987210297e-16,-1,1,-1.8369701987210297e-16,952,952)" href="#id-0" style="transform:matrix(0, -1, 1, 0, 952, 952);;animation:none"></use>
<use transform="matrix(-1.8369701987210297e-16,-1,1,-1.8369701987210297e-16,1071,952)" href="#id-3" style="transform:matrix(0, -1, 1, 0, 1071, 952);;animation:none"></use>
<use transform="matrix(-1,1.2246467991473532e-16,-1.2246467991473532e-16,-1,1190,952)" href="#id-0" style="transform:matrix(-1, 0, 0, -1, 1190, 952);;animation:none"></use>
<use transform="matrix(-1.8369701987210297e-16,-1,1,-1.8369701987210297e-16,1309,952)" href="#id-3" style="transform:matrix(0, -1, 1, 0, 1309, 952);;animation:none"></use>
<use transform="matrix(-1,1.2246467991473532e-16,-1.2246467991473532e-16,-1,1428,952)" href="#id-2" style="transform:matrix(-1, 0, 0, -1, 1428, 952);;animation:none"></use>
<use transform="matrix(-1.8369701987210297e-16,-1,1,-1.8369701987210297e-16,1547,952)" href="#id-0" style="transform:matrix(0, -1, 1, 0, 1547, 952);;animation:none"></use>
<use transform="matrix(-1.8369701987210297e-16,-1,1,-1.8369701987210297e-16,1666,952)" href="#id-0" style="transform:matrix(0, -1, 1, 0, 1666, 952);;animation:none"></use>
<use transform="matrix(-1.8369701987210297e-16,-1,1,-1.8369701987210297e-16,1785,952)" href="#id-1" style="transform:matrix(0, -1, 1, 0, 1785, 952);;animation:none"></use>
<use transform="matrix(1,0,0,1,0,1071)" href="#id-3" style="transform:matrix(1, 0, 0, 1, 0, 1071);;animation:none"></use>
<use transform="matrix(6.123233995736766e-17,1,-1,6.123233995736766e-17,119,1071)" href="#id-1" style="transform:matrix(0, 1, -1, 0, 119, 1071);;animation:none"></use>
<g transform="matrix(1,0,0,1,238,1071)" style="transform:matrix(1, 0, 0, 1, 238, 1071);;animation:none"><g transform="matrix(1,0,0,1,0,0)" style="transform:matrix(1, 0, 0, 1, 0, 0);;animation:none"><use transform="matrix(-1.8369701987210297e-16,-1,1,-1.8369701987210297e-16,0,0)" href="#id-0" style="transform:matrix(0, -1, 1, 0, 0, 0);;animation:none"></use></g></g>
<use transform="matrix(-1.8369701987210297e-16,-1,1,-1.8369701987210297e-16,357,1071)" href="#id-2" style="transform:matrix(0, -1, 1, 0, 357, 1071);;animation:none"></use>
<use transform="matrix(6.123233995736766e-17,1,-1,6.123233995736766e-17,476,1071)" href="#id-2" style="transform:matrix(0, 1, -1, 0, 476, 1071);;animation:none"></use>
<use transform="matrix(1,0,0,1,595,1071)" href="#id-0" style="transform:matrix(1, 0, 0, 1, 595, 1071);;animation:none"></use>
<use transform="matrix(1,0,0,1,714,1071)" href="#id-1" style="transform:matrix(1, 0, 0, 1, 714, 1071);;animation:none"></use>
<use transform="matrix(-1.8369701987210297e-16,-1,1,-1.8369701987210297e-16,833,1071)" href="#id-2" style="transform:matrix(0, -1, 1, 0, 833, 1071);;animation:none"></use>
<use transform="matrix(6.123233995736766e-17,1,-1,6.123233995736766e-17,952,1071)" href="#id-2" style="transform:matrix(0, 1, -1, 0, 952, 1071);;animation:none"></use>
<use transform="matrix(6.123233995736766e-17,1,-1,6.123233995736766e-17,1071,1071)" href="#id-2" style="transform:matrix(0, 1, -1, 0, 1071, 1071);;animation:none"></use>
<use transform="matrix(6.123233995736766e-17,1,-1,6.123233995736766e-17,1190,1071)" href="#id-2" style="transform:matrix(0, 1, -1, 0, 1190, 1071);;animation:none"></use>
<use transform="matrix(6.123233995736766e-17,1,-1,6.123233995736766e-17,1309,1071)" href="#id-3" style="transform:matrix(0, 1, -1, 0, 1309, 1071);;animation:none"></use>
<use transform="matrix(6.123233995736766e-17,1,-1,6.123233995736766e-17,1428,1071)" href="#id-3" style="transform:matrix(0, 1, -1, 0, 1428, 1071);;animation:none"></use>
<use transform="matrix(6.123233995736766e-17,1,-1,6.123233995736766e-17,1547,1071)" href="#id-1" style="transform:matrix(0, 1, -1, 0, 1547, 1071);;animation:none"></use>
<use transform="matrix(-1,1.2246467991473532e-16,-1.2246467991473532e-16,-1,1666,1071)" href="#id-1" style="transform:matrix(-1, 0, 0, -1, 1666, 1071);;animation:none"></use>
<use transform="matrix(1,0,0,1,1785,1071)" href="#id-2" style="transform:matrix(1, 0, 0, 1, 1785, 1071);;animation:none"></use>
<g></g></g><!-- [ldio] generated by https://loading.io --></svg>