<svg xmlns="http://www.w3.org/2000/svg" viewBox="0 0 1707 965" preserveAspectRatio="xMidYMid" width="1707" height="965" style="shape-rendering: auto; display: block; background: transparent;" xmlns:xlink="http://www.w3.org/1999/xlink"><g><defs><g transform="scale(1.133) translate(-50,-50)" id="id-0"><path fill="#ffbb3b" d="M0 0M100 0A100 100 0 0 1 0 100L0 0"></path></g><g transform="scale(1.133) translate(-50,-50)" id="id-1"><path fill="#e2e2e2" d="M0 0M100 0A100 100 0 0 1 0 100L0 0"></path></g><g transform="scale(1.133) translate(-50,-50)" id="id-2"><path fill="#95650b" d="M0 0M100 0A100 100 0 0 1 0 100L0 0"></path></g><g transform="scale(1.133) translate(-50,-50)" id="id-3"><path fill="#f6d392" d="M0 0M100 0A100 100 0 0 1 0 100L0 0"></path></g></defs><use transform="translate(0,0) rotate(90)" href="#id-0"></use><use transform="translate(119,0) rotate(0)" href="#id-3"></use><g transform="translate(238,0)"><g>
<use transform="rotate(90)" href="#id-3"></use>
<animateTransform repeatCount="indefinite" dur="2.941176470588235s" values="0 0;0 119;0 119;0 0;0 0" calcMode="spline" keySplines="0.5 0 0.5 1;0.5 0 0.5 1;0.5 0 0.5 1;0.5 0 0.5 1" keyTimes="0;0.25;0.5;0.75;1" type="translate" attributeName="transform"></animateTransform>
</g></g><use transform="translate(357,0) rotate(180)" href="#id-3"></use><use transform="translate(476,0) rotate(270)" href="#id-0"></use><use transform="translate(595,0) rotate(270)" href="#id-0"></use><use transform="translate(714,0) rotate(90)" href="#id-3"></use><use transform="translate(833,0) rotate(180)" href="#id-2"></use><use transform="translate(952,0) rotate(270)" href="#id-0"></use><use transform="translate(1071,0) rotate(180)" href="#id-0"></use><use transform="translate(1190,0) rotate(0)" href="#id-2"></use><use transform="translate(1309,0) rotate(0)" href="#id-2"></use><use transform="translate(1428,0) rotate(180)" href="#id-2"></use><use transform="translate(1547,0) rotate(270)" href="#id-2"></use><use transform="translate(1666,0) rotate(0)" href="#id-2"></use><use transform="translate(1785,0) rotate(270)" href="#id-1"></use><use transform="translate(0,119) rotate(90)" href="#id-0"></use><use transform="translate(119,119) rotate(0)" href="#id-2"></use><use transform="translate(357,119) rotate(180)" href="#id-1"></use><use transform="translate(476,119) rotate(180)" href="#id-2"></use><use transform="translate(595,119) rotate(0)" href="#id-3"></use><use transform="translate(714,119) rotate(90)" href="#id-1"></use><use transform="translate(833,119) rotate(90)" href="#id-3"></use><use transform="translate(952,119) rotate(270)" href="#id-3"></use><use transform="translate(1071,119) rotate(270)" href="#id-2"></use><use transform="translate(1190,119) rotate(270)" href="#id-1"></use><use transform="translate(1309,119) rotate(270)" href="#id-1"></use><use transform="translate(1428,119) rotate(270)" href="#id-1"></use><use transform="translate(1547,119) rotate(270)" href="#id-0"></use><use transform="translate(1666,119) rotate(0)" href="#id-3"></use><use transform="translate(1785,119) rotate(90)" href="#id-3"></use><g transform="translate(0,238)"><g>
<use transform="rotate(0)" href="#id-2"></use>
<animateTransform repeatCount="indefinite" dur="2.941176470588235s" values="0 0;119 0;119 0;0 0;0 0" calcMode="spline" keySplines="0.5 0 0.5 1;0.5 0 0.5 1;0.5 0 0.5 1;0.5 0 0.5 1" keyTimes="0;0.25;0.5;0.75;1" type="translate" attributeName="transform"></animateTransform>
</g></g><g transform="translate(238,238)"><g>
<use transform="rotate(90)" href="#id-1"></use>
<animateTransform repeatCount="indefinite" dur="2.941176470588235s" values="0 0;119 0;119 0;0 0;0 0" calcMode="spline" keySplines="0.5 0 0.5 1;0.5 0 0.5 1;0.5 0 0.5 1;0.5 0 0.5 1" keyTimes="0;0.25;0.5;0.75;1" type="translate" attributeName="transform"></animateTransform>
</g></g><g transform="translate(357,238)"><g>
<use transform="rotate(180)" href="#id-0"></use>
<animateTransform repeatCount="indefinite" dur="2.941176470588235s" values="0 0;119 0;119 0;0 0;0 0" calcMode="spline" keySplines="0.5 0 0.5 1;0.5 0 0.5 1;0.5 0 0.5 1;0.5 0 0.5 1" keyTimes="0;0.25;0.5;0.75;1" type="translate" attributeName="transform"></animateTransform>
</g></g><g transform="translate(476,238)"><g>
<use transform="rotate(180)" href="#id-0"></use>
<animateTransform repeatCount="indefinite" dur="2.941176470588235s" values="0 0;119 0;119 0;0 0;0 0" calcMode="spline" keySplines="0.5 0 0.5 1;0.5 0 0.5 1;0.5 0 0.5 1;0.5 0 0.5 1" keyTimes="0;0.25;0.5;0.75;1" type="translate" attributeName="transform"></animateTransform>
</g></g><g transform="translate(595,238)"><g>
<use transform="rotate(270)" href="#id-0"></use>
<animateTransform repeatCount="indefinite" dur="2.941176470588235s" values="0 0;119 0;119 0;0 0;0 0" calcMode="spline" keySplines="0.5 0 0.5 1;0.5 0 0.5 1;0.5 0 0.5 1;0.5 0 0.5 1" keyTimes="0;0.25;0.5;0.75;1" type="translate" attributeName="transform"></animateTransform>
</g></g><g transform="translate(714,238)"><g>
<use transform="rotate(270)" href="#id-3"></use>
<animateTransform repeatCount="indefinite" dur="2.941176470588235s" values="0 0;119 0;119 0;0 0;0 0" calcMode="spline" keySplines="0.5 0 0.5 1;0.5 0 0.5 1;0.5 0 0.5 1;0.5 0 0.5 1" keyTimes="0;0.25;0.5;0.75;1" type="translate" attributeName="transform"></animateTransform>
</g></g><g transform="translate(833,238)"><g>
<use transform="rotate(0)" href="#id-3"></use>
<animateTransform repeatCount="indefinite" dur="2.941176470588235s" values="0 0;119 0;119 0;0 0;0 0" calcMode="spline" keySplines="0.5 0 0.5 1;0.5 0 0.5 1;0.5 0 0.5 1;0.5 0 0.5 1" keyTimes="0;0.25;0.5;0.75;1" type="translate" attributeName="transform"></animateTransform>
</g></g><g transform="translate(952,238)"><g>
<use transform="rotate(0)" href="#id-0"></use>
<animateTransform repeatCount="indefinite" dur="2.941176470588235s" values="0 0;119 0;119 0;0 0;0 0" calcMode="spline" keySplines="0.5 0 0.5 1;0.5 0 0.5 1;0.5 0 0.5 1;0.5 0 0.5 1" keyTimes="0;0.25;0.5;0.75;1" type="translate" attributeName="transform"></animateTransform>
</g></g><g transform="translate(1071,238)"><g>
<use transform="rotate(90)" href="#id-2"></use>
<animateTransform repeatCount="indefinite" dur="2.941176470588235s" values="0 0;119 0;119 0;0 0;0 0" calcMode="spline" keySplines="0.5 0 0.5 1;0.5 0 0.5 1;0.5 0 0.5 1;0.5 0 0.5 1" keyTimes="0;0.25;0.5;0.75;1" type="translate" attributeName="transform"></animateTransform>
</g></g><g transform="translate(1190,238)"><g>
<use transform="rotate(0)" href="#id-3"></use>
<animateTransform repeatCount="indefinite" dur="2.941176470588235s" values="0 0;119 0;119 0;0 0;0 0" calcMode="spline" keySplines="0.5 0 0.5 1;0.5 0 0.5 1;0.5 0 0.5 1;0.5 0 0.5 1" keyTimes="0;0.25;0.5;0.75;1" type="translate" attributeName="transform"></animateTransform>
</g></g><g transform="translate(1309,238)"><g>
<use transform="rotate(180)" href="#id-2"></use>
<animateTransform repeatCount="indefinite" dur="2.941176470588235s" values="0 0;119 0;119 0;0 0;0 0" calcMode="spline" keySplines="0.5 0 0.5 1;0.5 0 0.5 1;0.5 0 0.5 1;0.5 0 0.5 1" keyTimes="0;0.25;0.5;0.75;1" type="translate" attributeName="transform"></animateTransform>
</g></g><g transform="translate(1428,238)"><g>
<use transform="rotate(180)" href="#id-1"></use>
<animateTransform repeatCount="indefinite" dur="2.941176470588235s" values="0 0;119 0;119 0;0 0;0 0" calcMode="spline" keySplines="0.5 0 0.5 1;0.5 0 0.5 1;0.5 0 0.5 1;0.5 0 0.5 1" keyTimes="0;0.25;0.5;0.75;1" type="translate" attributeName="transform"></animateTransform>
</g></g><g transform="translate(1547,238)"><g>
<use transform="rotate(90)" href="#id-0"></use>
<animateTransform repeatCount="indefinite" dur="2.941176470588235s" values="0 0;119 0;119 0;0 0;0 0" calcMode="spline" keySplines="0.5 0 0.5 1;0.5 0 0.5 1;0.5 0 0.5 1;0.5 0 0.5 1" keyTimes="0;0.25;0.5;0.75;1" type="translate" attributeName="transform"></animateTransform>
</g></g><g transform="translate(1666,238)"><g>
<use transform="rotate(90)" href="#id-3"></use>
<animateTransform repeatCount="indefinite" dur="2.941176470588235s" values="0 0;119 0;119 0;0 0;0 0" calcMode="spline" keySplines="0.5 0 0.5 1;0.5 0 0.5 1;0.5 0 0.5 1;0.5 0 0.5 1" keyTimes="0;0.25;0.5;0.75;1" type="translate" attributeName="transform"></animateTransform>
</g></g><g transform="translate(1785,238)"><g>
<use transform="rotate(270)" href="#id-3"></use>
<animateTransform repeatCount="indefinite" dur="2.941176470588235s" values="0 0;119 0;119 0;0 0;0 0" calcMode="spline" keySplines="0.5 0 0.5 1;0.5 0 0.5 1;0.5 0 0.5 1;0.5 0 0.5 1" keyTimes="0;0.25;0.5;0.75;1" type="translate" attributeName="transform"></animateTransform>
</g></g><use transform="translate(0,357) rotate(270)" href="#id-0"></use><use transform="translate(119,357) rotate(0)" href="#id-0"></use><g transform="translate(238,357)"><g>
<use transform="rotate(0)" href="#id-0"></use>
<animateTransform repeatCount="indefinite" dur="2.941176470588235s" values="0 0;0 119;0 119;0 0;0 0" calcMode="spline" keySplines="0.5 0 0.5 1;0.5 0 0.5 1;0.5 0 0.5 1;0.5 0 0.5 1" keyTimes="0;0.25;0.5;0.75;1" type="translate" attributeName="transform"></animateTransform>
</g></g><use transform="translate(357,357) rotate(90)" href="#id-3"></use><use transform="translate(476,357) rotate(180)" href="#id-1"></use><use transform="translate(595,357) rotate(180)" href="#id-3"></use><use transform="translate(714,357) rotate(0)" href="#id-3"></use><use transform="translate(833,357) rotate(270)" href="#id-1"></use><use transform="translate(952,357) rotate(180)" href="#id-3"></use><use transform="translate(1071,357) rotate(90)" href="#id-2"></use><use transform="translate(1190,357) rotate(180)" href="#id-1"></use><use transform="translate(1309,357) rotate(0)" href="#id-2"></use><use transform="translate(1428,357) rotate(270)" href="#id-0"></use><use transform="translate(1547,357) rotate(180)" href="#id-0"></use><use transform="translate(1666,357) rotate(0)" href="#id-1"></use><use transform="translate(1785,357) rotate(0)" href="#id-0"></use><use transform="translate(0,476) rotate(180)" href="#id-3"></use><use transform="translate(119,476) rotate(270)" href="#id-1"></use><g transform="translate(238,476)"><g>
<use transform="rotate(90)" href="#id-3"></use>
<animateTransform repeatCount="indefinite" dur="2.941176470588235s" values="0 0;0 119;0 119;0 0;0 0" calcMode="spline" keySplines="0.5 0 0.5 1;0.5 0 0.5 1;0.5 0 0.5 1;0.5 0 0.5 1" keyTimes="0;0.25;0.5;0.75;1" type="translate" attributeName="transform"></animateTransform>
</g></g><use transform="translate(357,476) rotate(180)" href="#id-2"></use><use transform="translate(476,476) rotate(0)" href="#id-0"></use><use transform="translate(595,476) rotate(0)" href="#id-3"></use><use transform="translate(714,476) rotate(270)" href="#id-3"></use><use transform="translate(833,476) rotate(270)" href="#id-1"></use><use transform="translate(952,476) rotate(180)" href="#id-3"></use><use transform="translate(1071,476) rotate(180)" href="#id-3"></use><use transform="translate(1190,476) rotate(0)" href="#id-1"></use><use transform="translate(1309,476) rotate(0)" href="#id-1"></use><use transform="translate(1428,476) rotate(0)" href="#id-1"></use><use transform="translate(1547,476) rotate(270)" href="#id-1"></use><use transform="translate(1666,476) rotate(0)" href="#id-3"></use><use transform="translate(1785,476) rotate(0)" href="#id-2"></use><use transform="translate(0,595) rotate(180)" href="#id-3"></use><use transform="translate(119,595) rotate(270)" href="#id-0"></use><g transform="translate(238,595)"><g>
<use transform="rotate(180)" href="#id-2"></use>
<animateTransform repeatCount="indefinite" dur="2.941176470588235s" values="0 0;0 119;0 119;0 0;0 0" calcMode="spline" keySplines="0.5 0 0.5 1;0.5 0 0.5 1;0.5 0 0.5 1;0.5 0 0.5 1" keyTimes="0;0.25;0.5;0.75;1" type="translate" attributeName="transform"></animateTransform>
</g></g><use transform="translate(357,595) rotate(180)" href="#id-3"></use><use transform="translate(476,595) rotate(90)" href="#id-3"></use><use transform="translate(595,595) rotate(0)" href="#id-3"></use><use transform="translate(714,595) rotate(90)" href="#id-2"></use><use transform="translate(833,595) rotate(180)" href="#id-0"></use><use transform="translate(952,595) rotate(90)" href="#id-2"></use><use transform="translate(1071,595) rotate(0)" href="#id-0"></use><use transform="translate(1190,595) rotate(270)" href="#id-2"></use><use transform="translate(1309,595) rotate(180)" href="#id-1"></use><use transform="translate(1428,595) rotate(180)" href="#id-0"></use><use transform="translate(1547,595) rotate(270)" href="#id-1"></use><use transform="translate(1666,595) rotate(180)" href="#id-0"></use><use transform="translate(1785,595) rotate(270)" href="#id-1"></use><use transform="translate(0,714) rotate(0)" href="#id-1"></use><use transform="translate(119,714) rotate(90)" href="#id-2"></use><g transform="translate(238,714)"><g>
<use transform="rotate(270)" href="#id-3"></use>
<animateTransform repeatCount="indefinite" dur="2.941176470588235s" values="0 0;0 119;0 119;0 0;0 0" calcMode="spline" keySplines="0.5 0 0.5 1;0.5 0 0.5 1;0.5 0 0.5 1;0.5 0 0.5 1" keyTimes="0;0.25;0.5;0.75;1" type="translate" attributeName="transform"></animateTransform>
</g></g><use transform="translate(357,714) rotate(270)" href="#id-2"></use><use transform="translate(476,714) rotate(270)" href="#id-2"></use><use transform="translate(595,714) rotate(270)" href="#id-0"></use><use transform="translate(714,714) rotate(0)" href="#id-3"></use><use transform="translate(833,714) rotate(90)" href="#id-0"></use><use transform="translate(952,714) rotate(0)" href="#id-1"></use><use transform="translate(1071,714) rotate(180)" href="#id-2"></use><use transform="translate(1190,714) rotate(90)" href="#id-3"></use><use transform="translate(1309,714) rotate(90)" href="#id-3"></use><use transform="translate(1428,714) rotate(90)" href="#id-0"></use><use transform="translate(1547,714) rotate(180)" href="#id-0"></use><use transform="translate(1666,714) rotate(270)" href="#id-2"></use><use transform="translate(1785,714) rotate(180)" href="#id-0"></use><use transform="translate(0,833) rotate(0)" href="#id-0"></use><use transform="translate(119,833) rotate(270)" href="#id-1"></use><g transform="translate(238,833)"><g>
<use transform="rotate(0)" href="#id-3"></use>
<animateTransform repeatCount="indefinite" dur="2.941176470588235s" values="0 0;0 119;0 119;0 0;0 0" calcMode="spline" keySplines="0.5 0 0.5 1;0.5 0 0.5 1;0.5 0 0.5 1;0.5 0 0.5 1" keyTimes="0;0.25;0.5;0.75;1" type="translate" attributeName="transform"></animateTransform>
</g></g><use transform="translate(357,833) rotate(180)" href="#id-2"></use><use transform="translate(476,833) rotate(180)" href="#id-2"></use><use transform="translate(595,833) rotate(0)" href="#id-1"></use><use transform="translate(714,833) rotate(270)" href="#id-0"></use><use transform="translate(833,833) rotate(180)" href="#id-3"></use><use transform="translate(952,833) rotate(90)" href="#id-1"></use><use transform="translate(1071,833) rotate(0)" href="#id-2"></use><use transform="translate(1190,833) rotate(270)" href="#id-0"></use><use transform="translate(1309,833) rotate(180)" href="#id-1"></use><use transform="translate(1428,833) rotate(270)" href="#id-3"></use><use transform="translate(1547,833) rotate(0)" href="#id-3"></use><use transform="translate(1666,833) rotate(0)" href="#id-2"></use><use transform="translate(1785,833) rotate(270)" href="#id-0"></use><use transform="translate(0,952) rotate(0)" href="#id-2"></use><use transform="translate(119,952) rotate(270)" href="#id-0"></use><g transform="translate(238,952)"><g>
<use transform="rotate(180)" href="#id-3"></use>
<animateTransform repeatCount="indefinite" dur="2.941176470588235s" values="0 0;0 119;0 119;0 0;0 0" calcMode="spline" keySplines="0.5 0 0.5 1;0.5 0 0.5 1;0.5 0 0.5 1;0.5 0 0.5 1" keyTimes="0;0.25;0.5;0.75;1" type="translate" attributeName="transform"></animateTransform>
</g></g><use transform="translate(357,952) rotate(90)" href="#id-0"></use><use transform="translate(476,952) rotate(90)" href="#id-3"></use><use transform="translate(595,952) rotate(180)" href="#id-1"></use><use transform="translate(714,952) rotate(0)" href="#id-2"></use><use transform="translate(833,952) rotate(0)" href="#id-1"></use><use transform="translate(952,952) rotate(0)" href="#id-2"></use><use transform="translate(1071,952) rotate(180)" href="#id-0"></use><use transform="translate(1190,952) rotate(0)" href="#id-2"></use><use transform="translate(1309,952) rotate(180)" href="#id-3"></use><use transform="translate(1428,952) rotate(270)" href="#id-3"></use><use transform="translate(1547,952) rotate(0)" href="#id-1"></use><use transform="translate(1666,952) rotate(0)" href="#id-3"></use><use transform="translate(1785,952) rotate(90)" href="#id-2"></use><use transform="translate(0,1071) rotate(180)" href="#id-1"></use><use transform="translate(119,1071) rotate(90)" href="#id-2"></use><g transform="translate(238,1071)"><g>
<use transform="rotate(0)" href="#id-3"></use>
<animateTransform repeatCount="indefinite" dur="2.941176470588235s" values="0 0;0 119;0 119;0 0;0 0" calcMode="spline" keySplines="0.5 0 0.5 1;0.5 0 0.5 1;0.5 0 0.5 1;0.5 0 0.5 1" keyTimes="0;0.25;0.5;0.75;1" type="translate" attributeName="transform"></animateTransform>
</g></g><use transform="translate(357,1071) rotate(270)" href="#id-1"></use><use transform="translate(476,1071) rotate(270)" href="#id-2"></use><use transform="translate(595,1071) rotate(0)" href="#id-0"></use><use transform="translate(714,1071) rotate(90)" href="#id-0"></use><use transform="translate(833,1071) rotate(270)" href="#id-1"></use><use transform="translate(952,1071) rotate(270)" href="#id-2"></use><use transform="translate(1071,1071) rotate(270)" href="#id-2"></use><use transform="translate(1190,1071) rotate(270)" href="#id-1"></use><use transform="translate(1309,1071) rotate(180)" href="#id-2"></use><use transform="translate(1428,1071) rotate(180)" href="#id-2"></use><use transform="translate(1547,1071) rotate(90)" href="#id-0"></use><use transform="translate(1666,1071) rotate(90)" href="#id-0"></use><use transform="translate(1785,1071) rotate(270)" href="#id-0"></use><g></g></g><!-- [ldio] generated by https://loading.io --></svg>