<svg xmlns="http://www.w3.org/2000/svg" viewBox="0 0 2677 1270" preserveAspectRatio="xMidYMid" width="2677" height="1270" style="shape-rendering: auto; display: block; background: rgba(210, 211, 212, 0);" xmlns:xlink="http://www.w3.org/1999/xlink"><g><defs><g transform="scale(1.762) translate(-50,-50)" id="id-0"><path fill="#ffbb3b" d="M0 0M100 0A100 100 0 0 1 0 100L0 0"></path></g><g transform="scale(1.762) translate(-50,-50)" id="id-1"><path fill="#ffd588" d="M0 0M100 0A100 100 0 0 1 0 100L0 0"></path></g><g transform="scale(1.762) translate(-50,-50)" id="id-2"><path fill="#ffd588" d="M0 0M100 0A100 100 0 0 1 0 100L0 0"></path></g><g transform="scale(1.762) translate(-50,-50)" id="id-3"><path fill="#cbcbcb" d="M0 0M100 0A100 100 0 0 1 0 100L0 0"></path></g></defs><use transform="translate(0,0) rotate(180)" href="#id-2"></use><use transform="translate(185,0) rotate(90)" href="#id-2"></use><g transform="translate(370,0)"><g>
<use transform="rotate(180)" href="#id-0"></use>
<animateTransform repeatCount="indefinite" dur="10s" values="0 0;0 185;0 185;0 0;0 0" calcMode="spline" keySplines="0.5 0 0.5 1;0.5 0 0.5 1;0.5 0 0.5 1;0.5 0 0.5 1" keyTimes="0;0.25;0.5;0.75;1" type="translate" attributeName="transform"></animateTransform>
</g></g><use transform="translate(555,0) rotate(180)" href="#id-1"></use><use transform="translate(740,0) rotate(90)" href="#id-1"></use><use transform="translate(925,0) rotate(0)" href="#id-2"></use><use transform="translate(1110,0) rotate(90)" href="#id-2"></use><use transform="translate(1295,0) rotate(180)" href="#id-1"></use><use transform="translate(1480,0) rotate(0)" href="#id-3"></use><use transform="translate(1665,0) rotate(270)" href="#id-0"></use><use transform="translate(1850,0) rotate(270)" href="#id-0"></use><use transform="translate(2035,0) rotate(270)" href="#id-1"></use><use transform="translate(2220,0) rotate(270)" href="#id-1"></use><use transform="translate(2405,0) rotate(0)" href="#id-1"></use><use transform="translate(2590,0) rotate(270)" href="#id-1"></use><use transform="translate(2775,0) rotate(270)" href="#id-2"></use><use transform="translate(0,185) rotate(0)" href="#id-0"></use><use transform="translate(185,185) rotate(270)" href="#id-0"></use><use transform="translate(555,185) rotate(0)" href="#id-2"></use><use transform="translate(740,185) rotate(90)" href="#id-3"></use><use transform="translate(925,185) rotate(0)" href="#id-1"></use><use transform="translate(1110,185) rotate(270)" href="#id-2"></use><use transform="translate(1295,185) rotate(270)" href="#id-3"></use><use transform="translate(1480,185) rotate(90)" href="#id-1"></use><use transform="translate(1665,185) rotate(0)" href="#id-2"></use><use transform="translate(1850,185) rotate(180)" href="#id-2"></use><use transform="translate(2035,185) rotate(270)" href="#id-0"></use><use transform="translate(2220,185) rotate(270)" href="#id-3"></use><use transform="translate(2405,185) rotate(180)" href="#id-0"></use><use transform="translate(2590,185) rotate(270)" href="#id-3"></use><use transform="translate(2775,185) rotate(0)" href="#id-0"></use><g transform="translate(0,370)"><g>
<use transform="rotate(90)" href="#id-2"></use>
<animateTransform repeatCount="indefinite" dur="10s" values="0 0;185 0;185 0;0 0;0 0" calcMode="spline" keySplines="0.5 0 0.5 1;0.5 0 0.5 1;0.5 0 0.5 1;0.5 0 0.5 1" keyTimes="0;0.25;0.5;0.75;1" type="translate" attributeName="transform"></animateTransform>
</g></g><g transform="translate(370,370)"><g>
<use transform="rotate(0)" href="#id-0"></use>
<animateTransform repeatCount="indefinite" dur="10s" values="0 0;185 0;185 0;0 0;0 0" calcMode="spline" keySplines="0.5 0 0.5 1;0.5 0 0.5 1;0.5 0 0.5 1;0.5 0 0.5 1" keyTimes="0;0.25;0.5;0.75;1" type="translate" attributeName="transform"></animateTransform>
</g></g><g transform="translate(555,370)"><g>
<use transform="rotate(90)" href="#id-0"></use>
<animateTransform repeatCount="indefinite" dur="10s" values="0 0;185 0;185 0;0 0;0 0" calcMode="spline" keySplines="0.5 0 0.5 1;0.5 0 0.5 1;0.5 0 0.5 1;0.5 0 0.5 1" keyTimes="0;0.25;0.5;0.75;1" type="translate" attributeName="transform"></animateTransform>
</g></g><g transform="translate(740,370)"><g>
<use transform="rotate(180)" href="#id-0"></use>
<animateTransform repeatCount="indefinite" dur="10s" values="0 0;185 0;185 0;0 0;0 0" calcMode="spline" keySplines="0.5 0 0.5 1;0.5 0 0.5 1;0.5 0 0.5 1;0.5 0 0.5 1" keyTimes="0;0.25;0.5;0.75;1" type="translate" attributeName="transform"></animateTransform>
</g></g><g transform="translate(925,370)"><g>
<use transform="rotate(270)" href="#id-1"></use>
<animateTransform repeatCount="indefinite" dur="10s" values="0 0;185 0;185 0;0 0;0 0" calcMode="spline" keySplines="0.5 0 0.5 1;0.5 0 0.5 1;0.5 0 0.5 1;0.5 0 0.5 1" keyTimes="0;0.25;0.5;0.75;1" type="translate" attributeName="transform"></animateTransform>
</g></g><g transform="translate(1110,370)"><g>
<use transform="rotate(270)" href="#id-1"></use>
<animateTransform repeatCount="indefinite" dur="10s" values="0 0;185 0;185 0;0 0;0 0" calcMode="spline" keySplines="0.5 0 0.5 1;0.5 0 0.5 1;0.5 0 0.5 1;0.5 0 0.5 1" keyTimes="0;0.25;0.5;0.75;1" type="translate" attributeName="transform"></animateTransform>
</g></g><g transform="translate(1295,370)"><g>
<use transform="rotate(90)" href="#id-0"></use>
<animateTransform repeatCount="indefinite" dur="10s" values="0 0;185 0;185 0;0 0;0 0" calcMode="spline" keySplines="0.5 0 0.5 1;0.5 0 0.5 1;0.5 0 0.5 1;0.5 0 0.5 1" keyTimes="0;0.25;0.5;0.75;1" type="translate" attributeName="transform"></animateTransform>
</g></g><g transform="translate(1480,370)"><g>
<use transform="rotate(180)" href="#id-2"></use>
<animateTransform repeatCount="indefinite" dur="10s" values="0 0;185 0;185 0;0 0;0 0" calcMode="spline" keySplines="0.5 0 0.5 1;0.5 0 0.5 1;0.5 0 0.5 1;0.5 0 0.5 1" keyTimes="0;0.25;0.5;0.75;1" type="translate" attributeName="transform"></animateTransform>
</g></g><g transform="translate(1665,370)"><g>
<use transform="rotate(270)" href="#id-1"></use>
<animateTransform repeatCount="indefinite" dur="10s" values="0 0;185 0;185 0;0 0;0 0" calcMode="spline" keySplines="0.5 0 0.5 1;0.5 0 0.5 1;0.5 0 0.5 1;0.5 0 0.5 1" keyTimes="0;0.25;0.5;0.75;1" type="translate" attributeName="transform"></animateTransform>
</g></g><g transform="translate(1850,370)"><g>
<use transform="rotate(180)" href="#id-1"></use>
<animateTransform repeatCount="indefinite" dur="10s" values="0 0;185 0;185 0;0 0;0 0" calcMode="spline" keySplines="0.5 0 0.5 1;0.5 0 0.5 1;0.5 0 0.5 1;0.5 0 0.5 1" keyTimes="0;0.25;0.5;0.75;1" type="translate" attributeName="transform"></animateTransform>
</g></g><g transform="translate(2035,370)"><g>
<use transform="rotate(0)" href="#id-2"></use>
<animateTransform repeatCount="indefinite" dur="10s" values="0 0;185 0;185 0;0 0;0 0" calcMode="spline" keySplines="0.5 0 0.5 1;0.5 0 0.5 1;0.5 0 0.5 1;0.5 0 0.5 1" keyTimes="0;0.25;0.5;0.75;1" type="translate" attributeName="transform"></animateTransform>
</g></g><g transform="translate(2220,370)"><g>
<use transform="rotate(0)" href="#id-2"></use>
<animateTransform repeatCount="indefinite" dur="10s" values="0 0;185 0;185 0;0 0;0 0" calcMode="spline" keySplines="0.5 0 0.5 1;0.5 0 0.5 1;0.5 0 0.5 1;0.5 0 0.5 1" keyTimes="0;0.25;0.5;0.75;1" type="translate" attributeName="transform"></animateTransform>
</g></g><g transform="translate(2405,370)"><g>
<use transform="rotate(180)" href="#id-2"></use>
<animateTransform repeatCount="indefinite" dur="10s" values="0 0;185 0;185 0;0 0;0 0" calcMode="spline" keySplines="0.5 0 0.5 1;0.5 0 0.5 1;0.5 0 0.5 1;0.5 0 0.5 1" keyTimes="0;0.25;0.5;0.75;1" type="translate" attributeName="transform"></animateTransform>
</g></g><g transform="translate(2590,370)"><g>
<use transform="rotate(270)" href="#id-2"></use>
<animateTransform repeatCount="indefinite" dur="10s" values="0 0;185 0;185 0;0 0;0 0" calcMode="spline" keySplines="0.5 0 0.5 1;0.5 0 0.5 1;0.5 0 0.5 1;0.5 0 0.5 1" keyTimes="0;0.25;0.5;0.75;1" type="translate" attributeName="transform"></animateTransform>
</g></g><g transform="translate(2775,370)"><g>
<use transform="rotate(0)" href="#id-2"></use>
<animateTransform repeatCount="indefinite" dur="10s" values="0 0;185 0;185 0;0 0;0 0" calcMode="spline" keySplines="0.5 0 0.5 1;0.5 0 0.5 1;0.5 0 0.5 1;0.5 0 0.5 1" keyTimes="0;0.25;0.5;0.75;1" type="translate" attributeName="transform"></animateTransform>
</g></g><use transform="translate(0,555) rotate(270)" href="#id-3"></use><use transform="translate(185,555) rotate(90)" href="#id-1"></use><g transform="translate(370,555)"><g>
<use transform="rotate(0)" href="#id-2"></use>
<animateTransform repeatCount="indefinite" dur="10s" values="0 0;0 185;0 185;0 0;0 0" calcMode="spline" keySplines="0.5 0 0.5 1;0.5 0 0.5 1;0.5 0 0.5 1;0.5 0 0.5 1" keyTimes="0;0.25;0.5;0.75;1" type="translate" attributeName="transform"></animateTransform>
</g></g><use transform="translate(555,555) rotate(180)" href="#id-0"></use><use transform="translate(740,555) rotate(270)" href="#id-3"></use><use transform="translate(925,555) rotate(0)" href="#id-0"></use><use transform="translate(1110,555) rotate(180)" href="#id-3"></use><use transform="translate(1295,555) rotate(0)" href="#id-3"></use><use transform="translate(1480,555) rotate(0)" href="#id-2"></use><use transform="translate(1665,555) rotate(270)" href="#id-3"></use><use transform="translate(1850,555) rotate(180)" href="#id-2"></use><use transform="translate(2035,555) rotate(180)" href="#id-1"></use><use transform="translate(2220,555) rotate(180)" href="#id-2"></use><use transform="translate(2405,555) rotate(90)" href="#id-2"></use><use transform="translate(2590,555) rotate(0)" href="#id-0"></use><use transform="translate(2775,555) rotate(0)" href="#id-1"></use><use transform="translate(0,740) rotate(270)" href="#id-1"></use><use transform="translate(185,740) rotate(0)" href="#id-1"></use><g transform="translate(370,740)"><g>
<use transform="rotate(0)" href="#id-1"></use>
<animateTransform repeatCount="indefinite" dur="10s" values="0 0;0 185;0 185;0 0;0 0" calcMode="spline" keySplines="0.5 0 0.5 1;0.5 0 0.5 1;0.5 0 0.5 1;0.5 0 0.5 1" keyTimes="0;0.25;0.5;0.75;1" type="translate" attributeName="transform"></animateTransform>
</g></g><use transform="translate(555,740) rotate(270)" href="#id-3"></use><use transform="translate(740,740) rotate(90)" href="#id-3"></use><use transform="translate(925,740) rotate(270)" href="#id-2"></use><use transform="translate(1110,740) rotate(90)" href="#id-2"></use><use transform="translate(1295,740) rotate(270)" href="#id-0"></use><use transform="translate(1480,740) rotate(180)" href="#id-0"></use><use transform="translate(1665,740) rotate(270)" href="#id-1"></use><use transform="translate(1850,740) rotate(270)" href="#id-0"></use><use transform="translate(2035,740) rotate(180)" href="#id-3"></use><use transform="translate(2220,740) rotate(270)" href="#id-3"></use><use transform="translate(2405,740) rotate(180)" href="#id-1"></use><use transform="translate(2590,740) rotate(0)" href="#id-1"></use><use transform="translate(2775,740) rotate(0)" href="#id-2"></use><use transform="translate(0,925) rotate(270)" href="#id-2"></use><use transform="translate(185,925) rotate(0)" href="#id-0"></use><g transform="translate(370,925)"><g>
<use transform="rotate(270)" href="#id-0"></use>
<animateTransform repeatCount="indefinite" dur="10s" values="0 0;0 185;0 185;0 0;0 0" calcMode="spline" keySplines="0.5 0 0.5 1;0.5 0 0.5 1;0.5 0 0.5 1;0.5 0 0.5 1" keyTimes="0;0.25;0.5;0.75;1" type="translate" attributeName="transform"></animateTransform>
</g></g><use transform="translate(555,925) rotate(270)" href="#id-1"></use><use transform="translate(740,925) rotate(0)" href="#id-3"></use><use transform="translate(925,925) rotate(0)" href="#id-3"></use><use transform="translate(1110,925) rotate(0)" href="#id-0"></use><use transform="translate(1295,925) rotate(90)" href="#id-2"></use><use transform="translate(1480,925) rotate(270)" href="#id-3"></use><use transform="translate(1665,925) rotate(90)" href="#id-1"></use><use transform="translate(1850,925) rotate(270)" href="#id-3"></use><use transform="translate(2035,925) rotate(90)" href="#id-0"></use><use transform="translate(2220,925) rotate(90)" href="#id-2"></use><use transform="translate(2405,925) rotate(0)" href="#id-3"></use><use transform="translate(2590,925) rotate(90)" href="#id-0"></use><use transform="translate(2775,925) rotate(90)" href="#id-0"></use><use transform="translate(0,1110) rotate(0)" href="#id-3"></use><use transform="translate(185,1110) rotate(90)" href="#id-2"></use><g transform="translate(370,1110)"><g>
<use transform="rotate(0)" href="#id-1"></use>
<animateTransform repeatCount="indefinite" dur="10s" values="0 0;0 185;0 185;0 0;0 0" calcMode="spline" keySplines="0.5 0 0.5 1;0.5 0 0.5 1;0.5 0 0.5 1;0.5 0 0.5 1" keyTimes="0;0.25;0.5;0.75;1" type="translate" attributeName="transform"></animateTransform>
</g></g><use transform="translate(555,1110) rotate(270)" href="#id-3"></use><use transform="translate(740,1110) rotate(180)" href="#id-0"></use><use transform="translate(925,1110) rotate(180)" href="#id-0"></use><use transform="translate(1110,1110) rotate(270)" href="#id-2"></use><use transform="translate(1295,1110) rotate(270)" href="#id-2"></use><use transform="translate(1480,1110) rotate(0)" href="#id-3"></use><use transform="translate(1665,1110) rotate(270)" href="#id-3"></use><use transform="translate(1850,1110) rotate(90)" href="#id-0"></use><use transform="translate(2035,1110) rotate(180)" href="#id-0"></use><use transform="translate(2220,1110) rotate(180)" href="#id-0"></use><use transform="translate(2405,1110) rotate(90)" href="#id-2"></use><use transform="translate(2590,1110) rotate(0)" href="#id-0"></use><use transform="translate(2775,1110) rotate(180)" href="#id-0"></use><use transform="translate(0,1295) rotate(90)" href="#id-3"></use><use transform="translate(185,1295) rotate(180)" href="#id-2"></use><g transform="translate(370,1295)"><g>
<use transform="rotate(180)" href="#id-3"></use>
<animateTransform repeatCount="indefinite" dur="10s" values="0 0;0 185;0 185;0 0;0 0" calcMode="spline" keySplines="0.5 0 0.5 1;0.5 0 0.5 1;0.5 0 0.5 1;0.5 0 0.5 1" keyTimes="0;0.25;0.5;0.75;1" type="translate" attributeName="transform"></animateTransform>
</g></g><use transform="translate(555,1295) rotate(90)" href="#id-3"></use><use transform="translate(740,1295) rotate(270)" href="#id-1"></use><use transform="translate(925,1295) rotate(90)" href="#id-0"></use><use transform="translate(1110,1295) rotate(90)" href="#id-1"></use><use transform="translate(1295,1295) rotate(270)" href="#id-3"></use><use transform="translate(1480,1295) rotate(270)" href="#id-1"></use><use transform="translate(1665,1295) rotate(0)" href="#id-0"></use><use transform="translate(1850,1295) rotate(0)" href="#id-2"></use><use transform="translate(2035,1295) rotate(0)" href="#id-3"></use><use transform="translate(2220,1295) rotate(90)" href="#id-3"></use><use transform="translate(2405,1295) rotate(0)" href="#id-2"></use><use transform="translate(2590,1295) rotate(90)" href="#id-3"></use><use transform="translate(2775,1295) rotate(0)" href="#id-2"></use><g></g></g><!-- [ldio] generated by https://loading.io --></svg>