<svg viewBox="0 0 256 256" xmlns="http://www.w3.org/2000/svg" preserveAspectRatio="xMidYMid">
  <style>
    /* Dark mode: black → mid-gray clockwise from top */
    .dark .g1 { fill: #151515; }
    .dark .g2 { fill: #2a2a2a; }
    .dark .g3 { fill: #3f3f3f; }
    .dark .g4 { fill: #545454; }
    .dark .g5 { fill: #696969; }
    .dark .g6 { fill: #7e7e7e; }
    .dark .g7 { fill: #000000; }
    /* Light mode: white → mid-gray clockwise from top */
    :root:not(.dark) .g1 { fill: #eaeaea; }
    :root:not(.dark) .g2 { fill: #d5d5d5; }
    :root:not(.dark) .g3 { fill: #c0c0c0; }
    :root:not(.dark) .g4 { fill: #ababab; }
    :root:not(.dark) .g5 { fill: #969696; }
    :root:not(.dark) .g6 { fill: #818181; }
    :root:not(.dark) .g7 { fill: #ffffff; }
  </style>
  <g>
    <path class="g1" d="M256,74.981 L256,181.019 L252.583,181.352 L129.216,129.53 L128,128 L256,74.981"/>
    <path class="g2" d="M256,181.019 L181.019,256 L179.874,255.119 L127.565,131.51 L128,128 L256,181.019"/>
    <path class="g3" d="M128,128 L125.172,129.943 L74.536,253.841 L74.981,256 L181.019,256 L128,128"/>
    <path class="g4" d="M0,181.019 L3.174,178.551 L125.172,127.549 L128,128 L74.981,256 L0,181.019"/>
    <path class="g5" d="M0,74.981 L3.174,74.766 L126.245,125.239 L128,128 L0,181.019 L0,74.981"/>
    <path class="g6" d="M74.981,0 L0,74.981 L128,128 L128.225,124.744 L80.496,3.026 L74.981,0"/>
    <path class="g7" d="M74.981,0 L181.019,0 L128,128 L74.981,0"/>
  </g>
</svg>
