<svg width="84" height="84" viewBox="0 0 84 84" fill="none" xmlns="http://www.w3.org/2000/svg">
<path fill-rule="evenodd" clip-rule="evenodd" d="M64.0755 5.4892C45.182 11.8725 25.0189 13.3341 5.21856 12.2856C5.21856 12.2856 5.20848 14.5337 5.20848 34.1883L10.7379 39.7649C8.18997 41.4201 5.62129 43.0421 3.03279 44.6319L3.02271 62.7351L18.636 78.4918C39.6052 79.8733 61.012 78.3276 80.9782 71.3805V49.4879L75.276 43.7371C76.7491 42.2982 78.2258 40.8311 79.6787 39.3492C79.6787 37.6178 79.6888 21.2356 79.6888 21.2356L64.0755 5.4892ZM73.6348 37.9777V29.2004L73.6247 29.1902C60.026 33.0201 46.4274 34.4728 32.8288 34.4728C30.8343 34.4728 28.8498 34.4424 26.8554 34.3814V44.0934C28.87 44.1544 30.8745 44.1849 32.8891 44.1849C39.8899 44.1849 46.8908 43.7988 53.8916 42.8947C44.161 50.7882 34.4203 57.6861 24.6797 63.9339V72.7113C27.3994 72.8231 30.1191 72.884 32.8388 72.884C46.8706 72.884 60.9023 71.3297 74.9442 67.2255V57.5135C64.7603 60.4799 54.5967 62.1155 44.4229 62.7961C54.1535 55.5121 63.8941 47.3443 73.6348 37.9777Z" fill="black"/>
</svg>
